<mxfile host="app.diagrams.net" agent="Mozilla/5.0 (Windows NT 10.0; Win64; x64) AppleWebKit/537.36 (KHTML, like Gecko) Chrome/137.0.0.0 Safari/537.36" version="27.1.4">
  <diagram name="Pagina-1" id="0ncD0eBBw530gYMGQ3Pp">
    <mxGraphModel dx="912" dy="454" grid="1" gridSize="10" guides="1" tooltips="1" connect="1" arrows="1" fold="1" page="1" pageScale="1" pageWidth="827" pageHeight="1169" math="0" shadow="0">
      <root>
        <mxCell id="0" />
        <mxCell id="1" parent="0" />
        <mxCell id="HZCgjYWY6P8Gx2aGFV7r-11" value="" style="line;strokeWidth=1;fillColor=none;align=left;verticalAlign=middle;spacingTop=-1;spacingLeft=3;spacingRight=3;rotatable=0;labelPosition=right;points=[];portConstraint=eastwest;strokeColor=inherit;" vertex="1" parent="1">
          <mxGeometry x="420" y="61" width="140" height="8" as="geometry" />
        </mxCell>
        <mxCell id="HZCgjYWY6P8Gx2aGFV7r-13" value="Librelandia" style="swimlane;fontStyle=0;childLayout=stackLayout;horizontal=1;startSize=30;fillColor=none;horizontalStack=0;resizeParent=1;resizeParentMax=0;resizeLast=0;collapsible=1;marginBottom=0;whiteSpace=wrap;html=1;" vertex="1" collapsed="1" parent="1">
          <mxGeometry x="320" y="50" width="100" height="30" as="geometry">
            <mxRectangle x="280" y="20" width="140" height="104" as="alternateBounds" />
          </mxGeometry>
        </mxCell>
        <mxCell id="HZCgjYWY6P8Gx2aGFV7r-14" value="+ field: type" style="text;strokeColor=none;fillColor=none;align=left;verticalAlign=top;spacingLeft=4;spacingRight=4;overflow=hidden;rotatable=0;points=[[0,0.5],[1,0.5]];portConstraint=eastwest;whiteSpace=wrap;html=1;" vertex="1" parent="HZCgjYWY6P8Gx2aGFV7r-13">
          <mxGeometry y="26" width="140" height="26" as="geometry" />
        </mxCell>
        <mxCell id="HZCgjYWY6P8Gx2aGFV7r-15" value="+ field: type" style="text;strokeColor=none;fillColor=none;align=left;verticalAlign=top;spacingLeft=4;spacingRight=4;overflow=hidden;rotatable=0;points=[[0,0.5],[1,0.5]];portConstraint=eastwest;whiteSpace=wrap;html=1;" vertex="1" parent="HZCgjYWY6P8Gx2aGFV7r-13">
          <mxGeometry y="52" width="140" height="26" as="geometry" />
        </mxCell>
        <mxCell id="HZCgjYWY6P8Gx2aGFV7r-16" value="+ field: type" style="text;strokeColor=none;fillColor=none;align=left;verticalAlign=top;spacingLeft=4;spacingRight=4;overflow=hidden;rotatable=0;points=[[0,0.5],[1,0.5]];portConstraint=eastwest;whiteSpace=wrap;html=1;" vertex="1" parent="HZCgjYWY6P8Gx2aGFV7r-13">
          <mxGeometry y="78" width="140" height="26" as="geometry" />
        </mxCell>
        <mxCell id="HZCgjYWY6P8Gx2aGFV7r-17" value="Classname" style="swimlane;fontStyle=0;childLayout=stackLayout;horizontal=1;startSize=30;fillColor=none;horizontalStack=0;resizeParent=1;resizeParentMax=0;resizeLast=0;collapsible=1;marginBottom=0;whiteSpace=wrap;html=1;" vertex="1" collapsed="1" parent="1">
          <mxGeometry x="560" y="50" width="100" height="30" as="geometry">
            <mxRectangle x="560" y="20" width="140" height="104" as="alternateBounds" />
          </mxGeometry>
        </mxCell>
        <mxCell id="HZCgjYWY6P8Gx2aGFV7r-18" value="+ field: type" style="text;strokeColor=none;fillColor=none;align=left;verticalAlign=top;spacingLeft=4;spacingRight=4;overflow=hidden;rotatable=0;points=[[0,0.5],[1,0.5]];portConstraint=eastwest;whiteSpace=wrap;html=1;" vertex="1" parent="HZCgjYWY6P8Gx2aGFV7r-17">
          <mxGeometry y="26" width="140" height="26" as="geometry" />
        </mxCell>
        <mxCell id="HZCgjYWY6P8Gx2aGFV7r-19" value="+ field: type" style="text;strokeColor=none;fillColor=none;align=left;verticalAlign=top;spacingLeft=4;spacingRight=4;overflow=hidden;rotatable=0;points=[[0,0.5],[1,0.5]];portConstraint=eastwest;whiteSpace=wrap;html=1;" vertex="1" parent="HZCgjYWY6P8Gx2aGFV7r-17">
          <mxGeometry y="52" width="140" height="26" as="geometry" />
        </mxCell>
        <mxCell id="HZCgjYWY6P8Gx2aGFV7r-20" value="+ field: type" style="text;strokeColor=none;fillColor=none;align=left;verticalAlign=top;spacingLeft=4;spacingRight=4;overflow=hidden;rotatable=0;points=[[0,0.5],[1,0.5]];portConstraint=eastwest;whiteSpace=wrap;html=1;" vertex="1" parent="HZCgjYWY6P8Gx2aGFV7r-17">
          <mxGeometry y="78" width="140" height="26" as="geometry" />
        </mxCell>
        <mxCell id="HZCgjYWY6P8Gx2aGFV7r-21" value="1" style="text;html=1;align=center;verticalAlign=middle;resizable=0;points=[];autosize=1;strokeColor=none;fillColor=none;" vertex="1" parent="1">
          <mxGeometry x="425" y="38" width="30" height="30" as="geometry" />
        </mxCell>
        <mxCell id="HZCgjYWY6P8Gx2aGFV7r-22" value="*" style="text;html=1;align=center;verticalAlign=middle;resizable=0;points=[];autosize=1;strokeColor=none;fillColor=none;" vertex="1" parent="1">
          <mxGeometry x="525" y="38" width="30" height="30" as="geometry" />
        </mxCell>
        <mxCell id="HZCgjYWY6P8Gx2aGFV7r-23" value="offre" style="text;html=1;align=center;verticalAlign=middle;resizable=0;points=[];autosize=1;strokeColor=none;fillColor=none;" vertex="1" parent="1">
          <mxGeometry x="455" y="38" width="50" height="30" as="geometry" />
        </mxCell>
        <mxCell id="HZCgjYWY6P8Gx2aGFV7r-24" value="Libro" style="swimlane;fontStyle=0;childLayout=stackLayout;horizontal=1;startSize=26;fillColor=none;horizontalStack=0;resizeParent=1;resizeParentMax=0;resizeLast=0;collapsible=1;marginBottom=0;whiteSpace=wrap;html=1;" vertex="1" parent="1">
          <mxGeometry x="390" y="150" width="140" height="104" as="geometry" />
        </mxCell>
        <mxCell id="HZCgjYWY6P8Gx2aGFV7r-25" value="titolo" style="text;strokeColor=none;fillColor=none;align=left;verticalAlign=top;spacingLeft=4;spacingRight=4;overflow=hidden;rotatable=0;points=[[0,0.5],[1,0.5]];portConstraint=eastwest;whiteSpace=wrap;html=1;" vertex="1" parent="HZCgjYWY6P8Gx2aGFV7r-24">
          <mxGeometry y="26" width="140" height="26" as="geometry" />
        </mxCell>
        <mxCell id="HZCgjYWY6P8Gx2aGFV7r-26" value="annoDiPubblicazione" style="text;strokeColor=none;fillColor=none;align=left;verticalAlign=top;spacingLeft=4;spacingRight=4;overflow=hidden;rotatable=0;points=[[0,0.5],[1,0.5]];portConstraint=eastwest;whiteSpace=wrap;html=1;" vertex="1" parent="HZCgjYWY6P8Gx2aGFV7r-24">
          <mxGeometry y="52" width="140" height="26" as="geometry" />
        </mxCell>
        <mxCell id="HZCgjYWY6P8Gx2aGFV7r-27" value="Immagine" style="text;strokeColor=none;fillColor=none;align=left;verticalAlign=top;spacingLeft=4;spacingRight=4;overflow=hidden;rotatable=0;points=[[0,0.5],[1,0.5]];portConstraint=eastwest;whiteSpace=wrap;html=1;" vertex="1" parent="HZCgjYWY6P8Gx2aGFV7r-24">
          <mxGeometry y="78" width="140" height="26" as="geometry" />
        </mxCell>
        <mxCell id="HZCgjYWY6P8Gx2aGFV7r-63" value="1" style="text;html=1;align=center;verticalAlign=middle;resizable=0;points=[];autosize=1;strokeColor=none;fillColor=none;" vertex="1" parent="1">
          <mxGeometry x="420" y="88" width="30" height="30" as="geometry" />
        </mxCell>
        <mxCell id="HZCgjYWY6P8Gx2aGFV7r-65" value="contiene" style="text;html=1;align=center;verticalAlign=middle;resizable=0;points=[];autosize=1;strokeColor=none;fillColor=none;" vertex="1" parent="1">
          <mxGeometry x="425" y="100" width="70" height="30" as="geometry" />
        </mxCell>
        <mxCell id="HZCgjYWY6P8Gx2aGFV7r-68" value="" style="endArrow=diamondThin;endFill=1;endSize=24;html=1;rounded=0;entryX=-0.133;entryY=0.467;entryDx=0;entryDy=0;entryPerimeter=0;exitX=0.336;exitY=-0.01;exitDx=0;exitDy=0;exitPerimeter=0;" edge="1" parent="1">
          <mxGeometry width="160" relative="1" as="geometry">
            <mxPoint x="436.03" y="146.95000000000005" as="sourcePoint" />
            <mxPoint x="420" y="79.99999999999999" as="targetPoint" />
          </mxGeometry>
        </mxCell>
        <mxCell id="HZCgjYWY6P8Gx2aGFV7r-69" value="*" style="text;html=1;align=center;verticalAlign=middle;resizable=0;points=[];autosize=1;strokeColor=none;fillColor=none;" vertex="1" parent="1">
          <mxGeometry x="435" y="130" width="30" height="30" as="geometry" />
        </mxCell>
        <mxCell id="HZCgjYWY6P8Gx2aGFV7r-70" value="Recensione" style="swimlane;fontStyle=0;childLayout=stackLayout;horizontal=1;startSize=26;fillColor=none;horizontalStack=0;resizeParent=1;resizeParentMax=0;resizeLast=0;collapsible=1;marginBottom=0;whiteSpace=wrap;html=1;" vertex="1" parent="1">
          <mxGeometry x="390" y="380" width="140" height="104" as="geometry" />
        </mxCell>
        <mxCell id="HZCgjYWY6P8Gx2aGFV7r-71" value="+ field: type" style="text;strokeColor=none;fillColor=none;align=left;verticalAlign=top;spacingLeft=4;spacingRight=4;overflow=hidden;rotatable=0;points=[[0,0.5],[1,0.5]];portConstraint=eastwest;whiteSpace=wrap;html=1;" vertex="1" parent="HZCgjYWY6P8Gx2aGFV7r-70">
          <mxGeometry y="26" width="140" height="26" as="geometry" />
        </mxCell>
        <mxCell id="HZCgjYWY6P8Gx2aGFV7r-72" value="+ field: type" style="text;strokeColor=none;fillColor=none;align=left;verticalAlign=top;spacingLeft=4;spacingRight=4;overflow=hidden;rotatable=0;points=[[0,0.5],[1,0.5]];portConstraint=eastwest;whiteSpace=wrap;html=1;" vertex="1" parent="HZCgjYWY6P8Gx2aGFV7r-70">
          <mxGeometry y="52" width="140" height="26" as="geometry" />
        </mxCell>
        <mxCell id="HZCgjYWY6P8Gx2aGFV7r-73" value="+ field: type" style="text;strokeColor=none;fillColor=none;align=left;verticalAlign=top;spacingLeft=4;spacingRight=4;overflow=hidden;rotatable=0;points=[[0,0.5],[1,0.5]];portConstraint=eastwest;whiteSpace=wrap;html=1;" vertex="1" parent="HZCgjYWY6P8Gx2aGFV7r-70">
          <mxGeometry y="78" width="140" height="26" as="geometry" />
        </mxCell>
        <mxCell id="HZCgjYWY6P8Gx2aGFV7r-74" value="" style="endArrow=diamondThin;endFill=1;endSize=24;html=1;rounded=0;exitX=0.459;exitY=-0.017;exitDx=0;exitDy=0;exitPerimeter=0;" edge="1" parent="1" source="HZCgjYWY6P8Gx2aGFV7r-70">
          <mxGeometry width="160" relative="1" as="geometry">
            <mxPoint x="455.9999999999997" y="349.9999999999999" as="sourcePoint" />
            <mxPoint x="454.99999999999994" y="254" as="targetPoint" />
          </mxGeometry>
        </mxCell>
        <mxCell id="HZCgjYWY6P8Gx2aGFV7r-75" value="1" style="text;html=1;align=center;verticalAlign=middle;resizable=0;points=[];autosize=1;strokeColor=none;fillColor=none;" vertex="1" parent="1">
          <mxGeometry x="445" y="270" width="30" height="30" as="geometry" />
        </mxCell>
        <mxCell id="HZCgjYWY6P8Gx2aGFV7r-76" value="*" style="text;html=1;align=center;verticalAlign=middle;resizable=0;points=[];autosize=1;strokeColor=none;fillColor=none;" vertex="1" parent="1">
          <mxGeometry x="445" y="358" width="30" height="30" as="geometry" />
        </mxCell>
      </root>
    </mxGraphModel>
  </diagram>
</mxfile>
